<svg width="32" height="32" viewBox="0 0 32 32" fill="none" xmlns="http://www.w3.org/2000/svg">
<path d="M2.6665 29.3331H29.3332M26.6398 29.3465V23.9998M3.99984 18.6665H19.9998M11.9998 29.3331V24.3331M20.0132 29.3198L4.01317 29.3465L3.99984 9.42646C3.99984 8.53313 4.45317 7.70646 5.1865 7.21313L10.5198 3.65312C11.4132 3.05312 12.5865 3.05312 13.4798 3.65312L18.8132 7.21313C19.5598 7.70646 19.9998 8.53313 19.9998 9.42646L20.0132 29.3198V29.3198ZM26.6665 15.9998C25.1998 15.9998 23.9998 17.1998 23.9998 18.6665V21.3331C23.9998 22.7998 25.1998 23.9998 26.6665 23.9998C28.1332 23.9998 29.3332 22.7998 29.3332 21.3331V18.6665C29.3332 17.1998 28.1332 15.9998 26.6665 15.9998Z" stroke="black" stroke-width="1.5" stroke-miterlimit="10" stroke-linecap="round" stroke-linejoin="round"/>
<path d="M12 14C12.5304 14 13.0391 13.7893 13.4142 13.4142C13.7893 13.0391 14 12.5304 14 12C14 11.4696 13.7893 10.9609 13.4142 10.5858C13.0391 10.2107 12.5304 10 12 10C11.4696 10 10.9609 10.2107 10.5858 10.5858C10.2107 10.9609 10 11.4696 10 12C10 12.5304 10.2107 13.0391 10.5858 13.4142C10.9609 13.7893 11.4696 14 12 14Z" stroke="black" stroke-width="1.5" stroke-miterlimit="10" stroke-linecap="round" stroke-linejoin="round"/>
</svg>
