<svg width="70" height="71" viewBox="0 0 70 71" fill="none" xmlns="http://www.w3.org/2000/svg">
<path d="M42.4375 6.15356H27.5625C22.3125 6.15356 21.1458 8.77857 20.475 12.0161L18.0833 23.4494H51.9166L49.525 12.0161C48.8541 8.77857 47.6875 6.15356 42.4375 6.15356Z" stroke="#1EC28B" stroke-width="1.5" stroke-linecap="round" stroke-linejoin="round"/>
<path d="M18.0833 17.0911H15.9541M54.0458 17.0911H51.9166M22.3125 31.9077H28.6416M41.3583 31.9077H47.6875M35 49.9036V52.8202M35 61.5702V64.4869M8.74998 52.8202L5.83331 64.4869M61.25 52.8202L64.1666 64.4869M56.1166 42.0869C56.35 44.5661 54.3666 46.6952 51.8291 46.6952H47.8625C45.5875 46.6952 45.2666 45.7327 44.8583 44.5077L44.4208 43.2536C43.8375 41.5327 43.4583 40.3661 40.3958 40.3661H29.575C26.5416 40.3661 26.075 41.6786 25.55 43.2536L25.1125 44.5077C24.7041 45.7036 24.3833 46.6952 22.1083 46.6952H18.1416C15.6041 46.6952 13.6208 44.5661 13.8541 42.0869L15.05 29.1952C15.3416 26.0161 15.9541 23.4202 21.4958 23.4202H48.475C54.0166 23.4202 54.6291 26.0161 54.9208 29.1952L56.1166 42.0869V42.0869Z" stroke="#1EC28B" stroke-width="1.5" stroke-linecap="round" stroke-linejoin="round"/>
</svg>
