<svg width="70" height="71" viewBox="0 0 70 71" fill="none" xmlns="http://www.w3.org/2000/svg">
<path d="M26.25 29.487C27.7971 29.487 29.2808 28.8724 30.3748 27.7784C31.4688 26.6845 32.0834 25.2007 32.0834 23.6536C32.0834 22.1065 31.4688 20.6228 30.3748 19.5289C29.2808 18.4349 27.7971 17.8203 26.25 17.8203C24.7029 17.8203 23.2192 18.4349 22.1252 19.5289C21.0313 20.6228 20.4167 22.1065 20.4167 23.6536C20.4167 25.2007 21.0313 26.6845 22.1252 27.7784C23.2192 28.8724 24.7029 29.487 26.25 29.487Z" stroke="#1EC28B" stroke-width="1.5" stroke-linecap="round" stroke-linejoin="round"/>
<path d="M35 6.15356H26.25C11.6666 6.15356 5.83331 11.9869 5.83331 26.5702V44.0702C5.83331 58.6536 11.6666 64.4869 26.25 64.4869H43.75C58.3333 64.4869 64.1666 58.6536 64.1666 44.0702V32.4036" stroke="#1EC28B" stroke-width="1.5" stroke-linecap="round" stroke-linejoin="round"/>
<path d="M7.78748 55.5911L22.1666 45.937C24.4708 44.3911 27.7958 44.5661 29.8666 46.3453L30.8291 47.1911C33.1041 49.1453 36.7791 49.1453 39.0541 47.1911L51.1875 36.7786C53.4625 34.8245 57.1375 34.8245 59.4125 36.7786L64.1666 40.862M47.0166 15.2245C46.0541 12.1911 47.1916 8.42864 50.3416 7.40781C52.0041 6.88281 54.075 7.32031 55.2416 8.92448C56.35 7.26198 58.4791 6.85364 60.1416 7.40781C63.3208 8.42864 64.4583 12.1911 63.4958 15.2245C61.9791 20.0078 56.7291 22.5161 55.2708 22.5161C53.7833 22.5161 48.5625 20.0661 47.0166 15.2245V15.2245Z" stroke="#1EC28B" stroke-width="1.5" stroke-linecap="round" stroke-linejoin="round"/>
</svg>
