<svg width="70" height="71" viewBox="0 0 70 71" fill="none" xmlns="http://www.w3.org/2000/svg">
<path d="M64.1666 50.4869C64.1666 53.1119 63.4375 55.5911 62.125 57.6911C60.892 59.7634 59.1413 61.4795 57.0448 62.6709C54.9483 63.8623 52.578 64.4881 50.1666 64.4869C45.0625 64.4869 40.6 61.7452 38.2083 57.6911C36.925 55.5911 36.1666 53.1119 36.1666 50.4869C36.2414 46.8234 37.7493 43.3351 40.3666 40.7706C42.984 38.2061 46.5023 36.7698 50.1666 36.7698C53.8309 36.7698 57.3493 38.2061 59.9666 40.7706C62.584 43.3351 64.0918 46.8234 64.1666 50.4869V50.4869Z" stroke="#1EC28B" stroke-width="1.5" stroke-miterlimit="10" stroke-linecap="round" stroke-linejoin="round"/>
<path d="M44.7125 50.4871L48.1542 53.9287L55.6209 47.0454" stroke="#1EC28B" stroke-width="1.5" stroke-linecap="round" stroke-linejoin="round"/>
<path d="M64.1667 25.6662C64.1667 31.4121 62.6792 36.4871 60.3459 40.8912C59.0393 39.5017 57.4622 38.3941 55.7116 37.6367C53.9611 36.8793 52.0741 36.4881 50.1667 36.4871C42.4375 36.4871 36.1667 42.7579 36.1667 50.4871C36.1667 54.0746 37.5375 57.3412 39.7542 59.8204C38.675 60.3162 37.6834 60.7246 36.8084 61.0162C35.8167 61.3662 34.1834 61.3662 33.1917 61.0162C24.7334 58.1287 5.83337 46.0829 5.83337 25.6662C5.83337 16.6537 13.0959 9.36206 22.05 9.36206C27.3292 9.36206 32.0542 11.9287 35 15.8662C36.5046 13.8503 38.4585 12.2128 40.7064 11.0838C42.9543 9.95472 45.4345 9.36523 47.95 9.36206C56.9042 9.36206 64.1667 16.6537 64.1667 25.6662Z" stroke="#1EC28B" stroke-width="1.5" stroke-linecap="round" stroke-linejoin="round"/>
</svg>
