<svg width="32" height="32" viewBox="0 0 32 32" fill="none" xmlns="http://www.w3.org/2000/svg">
<path d="M18.6665 10.6668V17.3335M23.9998 10.6668V17.3335M7.99984 17.3335V22.6668M17.3332 29.3335H6.6665C3.99984 29.3335 2.6665 28.0002 2.6665 25.3335V14.6668C2.6665 12.0002 3.99984 10.6668 6.6665 10.6668H13.3332V25.3335C13.3332 28.0002 14.6665 29.3335 17.3332 29.3335ZM13.4798 5.3335C13.3732 5.7335 13.3332 6.1735 13.3332 6.66683V10.6668H6.6665V8.00016C6.6665 6.5335 7.8665 5.3335 9.33317 5.3335H13.4798ZM22.6665 22.6668H19.9998C19.2665 22.6668 18.6665 23.2668 18.6665 24.0002V29.3335H23.9998V24.0002C23.9998 23.2668 23.3998 22.6668 22.6665 22.6668Z" stroke="black" stroke-width="1.5" stroke-miterlimit="10" stroke-linecap="round" stroke-linejoin="round"/>
<path d="M13.3335 25.3332V6.6665C13.3335 3.99984 14.6668 2.6665 17.3335 2.6665H25.3335C28.0002 2.6665 29.3335 3.99984 29.3335 6.6665V25.3332C29.3335 27.9998 28.0002 29.3332 25.3335 29.3332H17.3335C14.6668 29.3332 13.3335 27.9998 13.3335 25.3332Z" stroke="black" stroke-width="1.5" stroke-miterlimit="10" stroke-linecap="round" stroke-linejoin="round"/>
</svg>
