<svg width="74" height="45" viewBox="0 0 74 45" fill="none" xmlns="http://www.w3.org/2000/svg">
<path fill-rule="evenodd" clip-rule="evenodd" d="M32.8385 1.87744L36.0738 8.79573L37.8981 5.06155L41.2388 14.0649L43.6866 10.8687L48.5412 16.9038L49.744 14.1558L55.3097 20.9024L54.4059 21.6576L50.0534 16.3816L48.8398 19.154L43.7092 12.7758L40.8782 16.4725L37.7505 8.04316L36.0507 11.5225L32.825 4.62488L28.9696 12.6621L26.168 10.9707L21.2951 19.1787L20.2866 18.5723L25.7631 9.34759L28.4709 10.9824L32.8385 1.87744Z" fill="black"/>
<path d="M29.0139 3.2511C29.0139 5.04664 27.5676 6.50221 25.7835 6.50221C23.9993 6.50221 22.553 5.04664 22.553 3.2511C22.553 1.45557 23.9993 0 25.7835 0C27.5676 0 29.0139 1.45557 29.0139 3.2511Z" fill="black"/>
<path d="M6.03337 26.4817V33.1021H4.51093V30.3877H1.52244V33.1021H0V26.4817H1.52244V29.092H4.51093V26.4817H6.03337Z" fill="black"/>
<path d="M10.0874 31.9956C10.3505 31.9956 10.5824 31.9577 10.7828 31.8821C10.9896 31.8001 11.1807 31.674 11.3561 31.5038L12.1361 32.355C11.66 32.9035 10.9645 33.1778 10.0498 33.1778C9.47969 33.1778 8.97534 33.0674 8.53678 32.8468C8.09822 32.6198 7.7599 32.3077 7.52182 31.9104C7.28374 31.5132 7.1647 31.0624 7.1647 30.558C7.1647 30.0599 7.28061 29.6122 7.51242 29.215C7.7505 28.8114 8.07316 28.4993 8.48039 28.2787C8.89389 28.0517 9.35752 27.9382 9.87126 27.9382C10.3537 27.9382 10.7922 28.0422 11.187 28.2503C11.5817 28.4521 11.8949 28.7484 12.1267 29.1393C12.3648 29.5239 12.4838 29.9811 12.4838 30.5107L8.74353 31.2389C8.85004 31.4911 9.01607 31.6803 9.24161 31.8064C9.47342 31.9325 9.75536 31.9956 10.0874 31.9956ZM9.87126 29.0542C9.50162 29.0542 9.20089 29.174 8.96908 29.4136C8.73726 29.6532 8.61509 29.9842 8.60256 30.4067L11.0648 29.9243C10.9959 29.6595 10.8549 29.4483 10.6419 29.2906C10.4289 29.133 10.172 29.0542 9.87126 29.0542Z" fill="black"/>
<path d="M18.4877 28.0138V33.1021H17.0874V32.5063C16.8995 32.727 16.6677 32.894 16.392 33.0075C16.1226 33.121 15.8344 33.1778 15.5274 33.1778C14.8633 33.1778 14.3339 32.9855 13.9392 32.6009C13.5507 32.2162 13.3565 31.6456 13.3565 30.889V28.0138H14.8226V30.6715C14.8226 31.4911 15.164 31.901 15.8469 31.901C16.204 31.901 16.4891 31.7875 16.7021 31.5605C16.9151 31.3272 17.0217 30.9836 17.0217 30.5296V28.0138H18.4877Z" fill="black"/>
<path d="M23.119 30.4539C23.4197 30.5485 23.6515 30.6935 23.8144 30.889C23.9836 31.0845 24.0681 31.3178 24.0681 31.5889C24.0681 31.9104 23.9585 32.1942 23.7392 32.4401C23.5199 32.6797 23.2192 32.8657 22.837 32.9981C22.4549 33.1305 22.0226 33.1967 21.5401 33.1967C21.1454 33.1967 20.757 33.1557 20.3748 33.0737C19.9926 32.9918 19.6387 32.8688 19.3129 32.7049L19.7076 31.674C20.2401 31.9325 20.829 32.0618 21.4744 32.0618C21.8189 32.0618 22.0884 32.0113 22.2826 31.9104C22.4831 31.8033 22.5833 31.6551 22.5833 31.4659C22.5833 31.302 22.5144 31.179 22.3765 31.0971C22.2387 31.0088 22.0382 30.9647 21.7751 30.9647H20.7413V30.0473H21.6435C21.9004 30.0473 22.0977 30.0063 22.2356 29.9243C22.3734 29.8423 22.4423 29.7225 22.4423 29.5649C22.4423 29.401 22.3546 29.2749 22.1792 29.1866C22.01 29.0983 21.7657 29.0542 21.4462 29.0542C20.9575 29.0542 20.4249 29.1708 19.8485 29.4041L19.4914 28.3827C20.1931 28.0737 20.876 27.9193 21.5401 27.9193C21.9975 27.9193 22.4047 27.976 22.7619 28.0895C23.1252 28.203 23.4103 28.3701 23.6171 28.5908C23.8238 28.8051 23.9272 29.0574 23.9272 29.3474C23.9272 29.587 23.8551 29.8045 23.711 30C23.5669 30.1891 23.3696 30.3405 23.119 30.4539Z" fill="black"/>
<path d="M28.9971 30.4445C29.5923 30.6463 29.8899 31.0498 29.8899 31.6551C29.8899 32.1154 29.7176 32.4716 29.373 32.7238C29.0284 32.976 28.5146 33.1021 27.8317 33.1021H25.1346V28.0138H27.719C28.3517 28.0138 28.8467 28.1305 29.2038 28.3638C29.5609 28.5908 29.7395 28.9123 29.7395 29.3285C29.7395 29.5807 29.6737 29.8045 29.5421 30C29.4168 30.1891 29.2351 30.3373 28.9971 30.4445ZM26.4785 30.104H27.5874C28.1011 30.104 28.358 29.9212 28.358 29.5555C28.358 29.1961 28.1011 29.0164 27.5874 29.0164H26.4785V30.104ZM27.7096 32.0996C28.2484 32.0996 28.5178 31.9136 28.5178 31.5416C28.5178 31.3461 28.4551 31.2043 28.3298 31.116C28.2045 31.0214 28.0072 30.9741 27.7378 30.9741H26.4785V32.0996H27.7096Z" fill="black"/>
<path d="M33.4993 31.9956C33.7624 31.9956 33.9942 31.9577 34.1947 31.8821C34.4014 31.8001 34.5925 31.674 34.768 31.5038L35.548 32.355C35.0718 32.9035 34.3764 33.1778 33.4617 33.1778C32.8915 33.1778 32.3872 33.0674 31.9486 32.8468C31.5101 32.6198 31.1717 32.3077 30.9337 31.9104C30.6956 31.5132 30.5765 31.0624 30.5765 30.558C30.5765 30.0599 30.6925 29.6122 30.9243 29.215C31.1623 28.8114 31.485 28.4993 31.8922 28.2787C32.3057 28.0517 32.7694 27.9382 33.2831 27.9382C33.7655 27.9382 34.2041 28.0422 34.5988 28.2503C34.9935 28.4521 35.3068 28.7484 35.5386 29.1393C35.7766 29.5239 35.8957 29.9811 35.8957 30.5107L32.1554 31.2389C32.2619 31.4911 32.4279 31.6803 32.6535 31.8064C32.8853 31.9325 33.1672 31.9956 33.4993 31.9956ZM33.2831 29.0542C32.9135 29.0542 32.6127 29.174 32.3809 29.4136C32.1491 29.6532 32.0269 29.9842 32.0144 30.4067L34.4766 29.9243C34.4077 29.6595 34.2667 29.4483 34.0537 29.2906C33.8407 29.133 33.5838 29.0542 33.2831 29.0542Z" fill="black"/>
<path d="M42.0687 28.0138V32.2509C42.0687 33.1841 41.8275 33.8777 41.3451 34.3316C40.8627 34.7856 40.1578 35.0126 39.2306 35.0126C38.7419 35.0126 38.2783 34.9527 37.8397 34.8329C37.4011 34.7131 37.0378 34.5397 36.7496 34.3127L37.3322 33.2534C37.5452 33.43 37.8146 33.5687 38.1404 33.6696C38.4662 33.7768 38.792 33.8304 39.1178 33.8304C39.6253 33.8304 39.9981 33.7137 40.2361 33.4804C40.4805 33.2534 40.6027 32.9067 40.6027 32.4401V32.2225C40.2205 32.645 39.6879 32.8562 39.005 32.8562C38.5414 32.8562 38.1154 32.7553 37.7269 32.5536C37.3448 32.3455 37.0409 32.0555 36.8153 31.6835C36.5898 31.3115 36.477 30.8827 36.477 30.3972C36.477 29.9117 36.5898 29.483 36.8153 29.1109C37.0409 28.7389 37.3448 28.4521 37.7269 28.2503C38.1154 28.0422 38.5414 27.9382 39.005 27.9382C39.7381 27.9382 40.2957 28.1809 40.6778 28.6664V28.0138H42.0687ZM39.2964 31.6456C39.6848 31.6456 40.0012 31.5321 40.2455 31.3051C40.4961 31.0719 40.6215 30.7692 40.6215 30.3972C40.6215 30.0252 40.4961 29.7257 40.2455 29.4987C40.0012 29.2654 39.6848 29.1488 39.2964 29.1488C38.9079 29.1488 38.5884 29.2654 38.3378 29.4987C38.0872 29.7257 37.9619 30.0252 37.9619 30.3972C37.9619 30.7692 38.0872 31.0719 38.3378 31.3051C38.5884 31.5321 38.9079 31.6456 39.2964 31.6456Z" fill="black"/>
<path d="M48.5834 28.0138V33.1021H47.1832V32.5157C46.8198 32.9571 46.2935 33.1778 45.6043 33.1778C45.1282 33.1778 44.6959 33.0706 44.3074 32.8562C43.9253 32.6418 43.6245 32.336 43.4052 31.9388C43.186 31.5416 43.0763 31.0813 43.0763 30.558C43.0763 30.0347 43.186 29.5744 43.4052 29.1771C43.6245 28.7799 43.9253 28.4741 44.3074 28.2597C44.6959 28.0454 45.1282 27.9382 45.6043 27.9382C46.2496 27.9382 46.754 28.1431 47.1174 28.5529V28.0138H48.5834ZM45.8581 31.9672C46.2277 31.9672 46.5347 31.8411 46.779 31.5889C47.0234 31.3304 47.1456 30.9867 47.1456 30.558C47.1456 30.1292 47.0234 29.7888 46.779 29.5365C46.5347 29.278 46.2277 29.1488 45.8581 29.1488C45.4822 29.1488 45.172 29.278 44.9277 29.5365C44.6833 29.7888 44.5612 30.1292 44.5612 30.558C44.5612 30.9867 44.6833 31.3304 44.9277 31.5889C45.172 31.8411 45.4822 31.9672 45.8581 31.9672Z" fill="black"/>
<path d="M49.9689 28.0138H51.4256V30H53.6247V28.0138H55.0907V33.1021H53.6247V31.2011H51.4256V33.1021H49.9689V28.0138Z" fill="black"/>
<path d="M56.4941 28.0138H57.9508V30H60.1499V28.0138H61.6159V33.1021H60.1499V31.2011H57.9508V33.1021H56.4941V28.0138Z" fill="black"/>
<path d="M68.1224 28.0138V33.1021H66.7221V32.5157C66.3587 32.9571 65.8324 33.1778 65.1433 33.1778C64.6671 33.1778 64.2348 33.0706 63.8464 32.8562C63.4642 32.6418 63.1635 32.336 62.9442 31.9388C62.7249 31.5416 62.6153 31.0813 62.6153 30.558C62.6153 30.0347 62.7249 29.5744 62.9442 29.1771C63.1635 28.7799 63.4642 28.4741 63.8464 28.2597C64.2348 28.0454 64.6671 27.9382 65.1433 27.9382C65.7886 27.9382 66.2929 28.1431 66.6563 28.5529V28.0138H68.1224ZM65.397 31.9672C65.7666 31.9672 66.0736 31.8411 66.318 31.5889C66.5623 31.3304 66.6845 30.9867 66.6845 30.558C66.6845 30.1292 66.5623 29.7888 66.318 29.5365C66.0736 29.278 65.7666 29.1488 65.397 29.1488C65.0211 29.1488 64.711 29.278 64.4666 29.5365C64.2223 29.7888 64.1001 30.1292 64.1001 30.558C64.1001 30.9867 64.2223 31.3304 64.4666 31.5889C64.711 31.8411 65.0211 31.9672 65.397 31.9672Z" fill="black"/>
<path d="M74 28.0138V33.1021H72.6937V31.6456H71.613L70.6544 33.1021H69.0944L70.2503 31.4376C69.8994 31.2988 69.63 31.1002 69.4421 30.8417C69.2604 30.5769 69.1695 30.2585 69.1695 29.8865C69.1695 29.2875 69.3826 28.8272 69.8086 28.5056C70.2409 28.1778 70.833 28.0138 71.5848 28.0138H74ZM71.613 29.215C71.2997 29.215 71.0616 29.2717 70.8987 29.3852C70.7421 29.4987 70.6638 29.6816 70.6638 29.9338C70.6638 30.186 70.739 30.372 70.8893 30.4918C71.046 30.6053 71.2809 30.662 71.5942 30.662H72.6937V29.215H71.613Z" fill="black"/>
<path d="M22.3976 38.2377C23.3186 38.2377 24.0359 38.4647 24.5497 38.9186C25.0697 39.3726 25.3297 40.0094 25.3297 40.8291C25.3297 41.6046 25.0947 42.2131 24.6249 42.6544C24.1612 43.0958 23.5097 43.3165 22.6701 43.3165C22.3945 43.3165 22.125 43.2881 21.8619 43.2314C21.605 43.1746 21.3262 43.08 21.0255 42.9476V44.9243H19.5219V41.0088C19.5219 40.1198 19.7662 39.4357 20.2549 38.9565C20.7498 38.4773 21.4641 38.2377 22.3976 38.2377ZM22.407 42.1626C22.8518 42.1626 23.1933 42.0492 23.4313 41.8222C23.6757 41.5952 23.7979 41.2736 23.7979 40.8575C23.7979 40.435 23.6757 40.1072 23.4313 39.8739C23.1933 39.6406 22.8612 39.5239 22.4352 39.5239C21.9903 39.5239 21.6426 39.6532 21.392 39.9117C21.1477 40.1702 21.0255 40.5328 21.0255 40.9993V41.737C21.2135 41.8695 21.4265 41.9735 21.6646 42.0492C21.9089 42.1248 22.1564 42.1626 22.407 42.1626Z" fill="black"/>
<path d="M28.6179 45C28.0853 45 27.6061 44.8896 27.18 44.669C26.7603 44.442 26.4313 44.1299 26.1933 43.7326C25.9552 43.3354 25.8361 42.8846 25.8361 42.3802C25.8361 41.8758 25.9552 41.4249 26.1933 41.0277C26.4313 40.6305 26.7603 40.3215 27.18 40.1009C27.6061 39.8739 28.0853 39.7604 28.6179 39.7604C29.1504 39.7604 29.6266 39.8739 30.0463 40.1009C30.4661 40.3215 30.795 40.6305 31.0331 41.0277C31.2712 41.4249 31.3902 41.8758 31.3902 42.3802C31.3902 42.8846 31.2712 43.3354 31.0331 43.7326C30.795 44.1299 30.4661 44.442 30.0463 44.669C29.6266 44.8896 29.1504 45 28.6179 45ZM28.6179 43.7894C28.9938 43.7894 29.3008 43.6633 29.5389 43.4111C29.7832 43.1526 29.9054 42.8089 29.9054 42.3802C29.9054 41.9514 29.7832 41.6109 29.5389 41.3587C29.3008 41.1002 28.9938 40.971 28.6179 40.971C28.242 40.971 27.9318 41.1002 27.6875 41.3587C27.4432 41.6109 27.321 41.9514 27.321 42.3802C27.321 42.8089 27.4432 43.1526 27.6875 43.4111C27.9318 43.6633 28.242 43.7894 28.6179 43.7894Z" fill="black"/>
<path d="M34.8044 45C34.2656 45 33.7801 44.8896 33.3478 44.669C32.9217 44.442 32.5865 44.1299 32.3422 43.7326C32.1041 43.3354 31.9851 42.8846 31.9851 42.3802C31.9851 41.8758 32.1041 41.4249 32.3422 41.0277C32.5865 40.6305 32.9217 40.3215 33.3478 40.1009C33.7801 39.8739 34.2656 39.7604 34.8044 39.7604C35.337 39.7604 35.8006 39.8739 36.1953 40.1009C36.5963 40.3215 36.8876 40.6399 37.0693 41.0561L35.9321 41.6708C35.669 41.2043 35.29 40.971 34.795 40.971C34.4128 40.971 34.0964 41.0971 33.8458 41.3493C33.5952 41.6015 33.4699 41.9451 33.4699 42.3802C33.4699 42.8152 33.5952 43.1589 33.8458 43.4111C34.0964 43.6633 34.4128 43.7894 34.795 43.7894C35.2962 43.7894 35.6753 43.5561 35.9321 43.0895L37.0693 43.7137C36.8876 44.1172 36.5963 44.4325 36.1953 44.6595C35.8006 44.8865 35.337 45 34.8044 45Z" fill="black"/>
<path d="M40.3017 45C39.7629 45 39.2774 44.8896 38.8451 44.669C38.4191 44.442 38.0839 44.1299 37.8395 43.7326C37.6014 43.3354 37.4824 42.8846 37.4824 42.3802C37.4824 41.8758 37.6014 41.4249 37.8395 41.0277C38.0839 40.6305 38.4191 40.3215 38.8451 40.1009C39.2774 39.8739 39.7629 39.7604 40.3017 39.7604C40.8343 39.7604 41.2979 39.8739 41.6926 40.1009C42.0936 40.3215 42.3849 40.6399 42.5666 41.0561L41.4295 41.6708C41.1663 41.2043 40.7873 40.971 40.2923 40.971C39.9102 40.971 39.5938 41.0971 39.3432 41.3493C39.0926 41.6015 38.9673 41.9451 38.9673 42.3802C38.9673 42.8152 39.0926 43.1589 39.3432 43.4111C39.5938 43.6633 39.9102 43.7894 40.2923 43.7894C40.7936 43.7894 41.1726 43.5561 41.4295 43.0895L42.5666 43.7137C42.3849 44.1172 42.0936 44.4325 41.6926 44.6595C41.2979 44.8865 40.8343 45 40.3017 45Z" fill="black"/>
<path d="M48.4477 39.836V44.9243H47.0474V44.3285C46.8595 44.5492 46.6277 44.7162 46.352 44.8297C46.0826 44.9432 45.7944 45 45.4874 45C44.8233 45 44.2939 44.8077 43.8992 44.423C43.5107 44.0384 43.3165 43.4678 43.3165 42.7112V39.836H44.7826V42.4937C44.7826 43.3133 45.124 43.7232 45.8069 43.7232C46.164 43.7232 46.4491 43.6097 46.6621 43.3827C46.8751 43.1494 46.9817 42.8058 46.9817 42.3518V39.836H48.4477Z" fill="black"/>
<path d="M54.3372 39.836V44.9243H53.0309V43.4678H51.9501L50.9916 44.9243H49.4315L50.5875 43.2597C50.2366 43.121 49.9672 42.9224 49.7793 42.6639C49.5976 42.3991 49.5067 42.0807 49.5067 41.7087C49.5067 41.1097 49.7197 40.6494 50.1458 40.3278C50.5781 40 51.1701 39.836 51.9219 39.836H54.3372ZM51.9501 41.0372C51.6369 41.0372 51.3988 41.0939 51.2359 41.2074C51.0793 41.3209 51.001 41.5038 51.001 41.756C51.001 42.0082 51.0761 42.1942 51.2265 42.314C51.3831 42.4275 51.6181 42.4842 51.9313 42.4842H53.0309V41.0372H51.9501Z" fill="black"/>
<path d="M25.6057 21.7234L30.776 19.2112L40.6237 23.5854L53.0957 21.7234L40.6237 24.8267L30.776 20.689L26.3708 22.4623L20.7909 20.689L25.6057 21.7234Z" fill="black"/>
</svg>
