<svg width="32" height="32" viewBox="0 0 32 32" fill="none" xmlns="http://www.w3.org/2000/svg">
<path d="M15.9998 17.9064C16.5461 17.9064 17.0871 17.7988 17.5918 17.5898C18.0965 17.3807 18.5551 17.0743 18.9414 16.688C19.3277 16.3017 19.6341 15.8431 19.8432 15.3384C20.0522 14.8337 20.1598 14.2927 20.1598 13.7464C20.1598 13.2001 20.0522 12.6592 19.8432 12.1545C19.6341 11.6497 19.3277 11.1912 18.9414 10.8049C18.5551 10.4186 18.0965 10.1121 17.5918 9.90309C17.0871 9.69403 16.5461 9.58643 15.9998 9.58643C14.8965 9.58643 13.8384 10.0247 13.0583 10.8049C12.2781 11.585 11.8398 12.6431 11.8398 13.7464C11.8398 14.8497 12.2781 15.9078 13.0583 16.688C13.8384 17.4681 14.8965 17.9064 15.9998 17.9064V17.9064Z" stroke="black" stroke-width="1.5"/>
<path d="M4.8266 11.3198C7.45327 -0.226826 24.5599 -0.213493 27.1733 11.3332C28.7066 18.1065 24.4933 23.8398 20.7999 27.3865C19.5094 28.6312 17.7863 29.3268 15.9933 29.3268C14.2003 29.3268 12.4772 28.6312 11.1866 27.3865C7.5066 23.8398 3.29327 18.0932 4.8266 11.3198V11.3198Z" stroke="black" stroke-width="1.5"/>
</svg>
