<svg width="70" height="71" viewBox="0 0 70 71" fill="none" xmlns="http://www.w3.org/2000/svg">
<path d="M55.4167 26.5702C55.4167 30.7994 54.1625 34.6786 52.0042 37.9161C50.4227 40.2749 48.3654 42.277 45.9645 43.7939C43.5635 45.3108 40.872 46.309 38.0626 46.7244C37.0709 46.8994 36.0501 46.9869 35.0001 46.9869C33.9501 46.9869 32.9292 46.8994 31.9376 46.7244C29.1281 46.309 26.4366 45.3108 24.0356 43.7939C21.6347 42.277 19.5774 40.2749 17.9959 37.9161C15.7568 34.557 14.5688 30.6072 14.5834 26.5702C14.5834 15.2827 23.7126 6.15356 35.0001 6.15356C46.2876 6.15356 55.4167 15.2827 55.4167 26.5702Z" stroke="#1EC28B" stroke-width="1.5" stroke-linecap="round" stroke-linejoin="round"/>
<path d="M61.9792 54.1912L57.1667 55.3287C56.0875 55.5912 55.2417 56.4079 55.0084 57.4871L53.9875 61.7746C53.8623 62.3009 53.5932 62.782 53.2102 63.1641C52.8273 63.5462 52.3456 63.8143 51.819 63.9384C51.2924 64.0625 50.7417 64.0376 50.2284 63.8667C49.7152 63.6957 49.2595 63.3854 48.9125 62.9704L35 46.9871L21.0875 62.9996C20.7405 63.4146 20.2849 63.7249 19.7716 63.8959C19.2583 64.0668 18.7076 64.0916 18.181 63.9675C17.6545 63.8435 17.1728 63.5754 16.7898 63.1933C16.4069 62.8111 16.1377 62.33 16.0125 61.8037L14.9917 57.5162C14.8676 56.9916 14.6 56.5119 14.2188 56.1307C13.8377 55.7496 13.3579 55.482 12.8334 55.3579L8.02085 54.2204C7.51664 54.0995 7.0536 53.8468 6.67917 53.4882C6.30473 53.1295 6.03234 52.6778 5.8899 52.1792C5.74746 51.6807 5.74008 51.1532 5.86852 50.6509C5.99696 50.1486 6.2566 49.6894 6.62085 49.3204L17.9959 37.9454C19.5774 40.3042 21.6347 42.3064 24.0356 43.8233C26.4365 45.3402 29.1281 46.3383 31.9375 46.7537C32.9292 46.9287 33.95 47.0162 35 47.0162C36.05 47.0162 37.0709 46.9287 38.0625 46.7537C43.8667 45.9079 48.8542 42.6121 52.0042 37.9454L63.3792 49.3204C64.9834 50.8954 64.1959 53.6662 61.9792 54.1912V54.1912ZM36.6917 17.7621L38.4125 21.2037C38.6459 21.6704 39.2584 22.1371 39.8125 22.2246L42.9334 22.7496C44.9167 23.0704 45.3834 24.5287 43.9542 25.9579L41.5334 28.3787C41.125 28.7871 40.8917 29.5746 41.0375 30.1579L41.7375 33.1621C42.2917 35.5246 41.0375 36.4579 38.9375 35.2037L36.0209 33.4829C35.7247 33.3248 35.3941 33.2422 35.0584 33.2422C34.7226 33.2422 34.3921 33.3248 34.0959 33.4829L31.1792 35.2037C29.0792 36.4287 27.825 35.5246 28.3792 33.1621L29.0792 30.1579C29.1959 29.6037 28.9917 28.7871 28.5834 28.3787L26.1625 25.9579C24.7334 24.5287 25.2 23.0996 27.1834 22.7496L30.3042 22.2246C30.8292 22.1371 31.4417 21.6704 31.675 21.2037L33.3959 17.7621C34.2417 15.8954 35.7584 15.8954 36.6917 17.7621V17.7621Z" stroke="#1EC28B" stroke-width="1.5" stroke-linecap="round" stroke-linejoin="round"/>
</svg>
