<svg width="70" height="71" viewBox="0 0 70 71" fill="none" xmlns="http://www.w3.org/2000/svg">
<path d="M64.1666 29.4869V38.2369C64.1666 49.9036 58.3333 55.7369 46.6666 55.7369H45.2083C44.3041 55.7369 43.4291 56.1744 42.875 56.9036L38.5 62.7369C36.575 65.3036 33.425 65.3036 31.5 62.7369L27.125 56.9036C26.6583 56.2619 25.5791 55.7369 24.7916 55.7369H23.3333C11.6666 55.7369 5.83331 52.8202 5.83331 38.2369V23.6536C5.83331 11.9869 11.6666 6.15356 23.3333 6.15356H40.8333" stroke="#1EC28B" stroke-width="1.5" stroke-miterlimit="10" stroke-linecap="round" stroke-linejoin="round"/>
<path d="M56.875 20.7369C58.8088 20.7369 60.6635 19.9687 62.031 18.6012C63.3984 17.2338 64.1666 15.3791 64.1666 13.4452C64.1666 11.5114 63.3984 9.6567 62.031 8.28924C60.6635 6.92179 58.8088 6.15356 56.875 6.15356C54.9411 6.15356 53.0864 6.92179 51.719 8.28924C50.3515 9.6567 49.5833 11.5114 49.5833 13.4452C49.5833 15.3791 50.3515 17.2338 51.719 18.6012C53.0864 19.9687 54.9411 20.7369 56.875 20.7369V20.7369Z" stroke="#1EC28B" stroke-width="1.5" stroke-linecap="round" stroke-linejoin="round"/>
<path d="M46.655 32.4036H46.6841M34.9854 32.4036H35.0146M23.3187 32.4036H23.3421" stroke="#1EC28B" stroke-width="2" stroke-linecap="round" stroke-linejoin="round"/>
</svg>
