<svg width="22" height="23" viewBox="0 0 22 23" fill="none" xmlns="http://www.w3.org/2000/svg">
<path d="M20.1667 16.01V18.76C20.1677 19.0153 20.1154 19.268 20.0132 19.5019C19.9109 19.7358 19.7609 19.9458 19.5728 20.1184C19.3846 20.291 19.1625 20.4224 18.9207 20.5042C18.6789 20.5859 18.4226 20.6163 18.1684 20.5933C15.3476 20.2868 12.6381 19.323 10.2575 17.7792C8.0427 16.3718 6.16491 14.494 4.75752 12.2792C3.20833 9.88778 2.24424 7.16509 1.94335 4.33167C1.92045 4.07819 1.95057 3.8227 2.03181 3.5815C2.11305 3.34029 2.24363 3.11864 2.41522 2.93066C2.58682 2.74268 2.79567 2.59249 3.0285 2.48965C3.26132 2.38681 3.513 2.33358 3.76752 2.33334H6.51752C6.96238 2.32896 7.39366 2.4865 7.73097 2.77658C8.06827 3.06666 8.28859 3.4695 8.35085 3.91001C8.46692 4.79007 8.68218 5.65417 8.99252 6.48584C9.11585 6.81394 9.14254 7.17051 9.06943 7.51331C8.99633 7.85612 8.82648 8.17078 8.58002 8.42001L7.41585 9.58417C8.72078 11.8791 10.6209 13.7792 12.9159 15.0842L14.08 13.92C14.3293 13.6736 14.6439 13.5037 14.9867 13.4306C15.3295 13.3575 15.6861 13.3842 16.0142 13.5075C16.8459 13.8178 17.71 14.0331 18.59 14.1492C19.0353 14.212 19.442 14.4363 19.7327 14.7794C20.0234 15.1225 20.1778 15.5605 20.1667 16.01Z" stroke="#111111" stroke-width="2" stroke-linecap="round" stroke-linejoin="round"/>
</svg>
