<svg width="35" height="35" viewBox="0 0 35 35" fill="none" xmlns="http://www.w3.org/2000/svg">
<path d="M17.4563 32.0833C25.5106 32.0833 32.0396 25.5543 32.0396 17.5C32.0396 9.44558 25.5106 2.91663 17.4563 2.91663C9.40188 2.91663 2.87292 9.44558 2.87292 17.5C2.87292 25.5543 9.40188 32.0833 17.4563 32.0833V32.0833Z" stroke="white" stroke-width="1.5" stroke-linecap="round" stroke-linejoin="round"/>
<path d="M12.7458 17.8355V15.4C12.7458 12.3667 14.8896 11.1271 17.5146 12.6438L19.6292 13.8688L21.7438 15.0938C24.3688 16.6105 24.3688 19.0896 21.7438 20.6063L19.6292 21.8313L17.5146 23.0563C14.8896 24.573 12.7458 23.3334 12.7458 20.3V17.8355V17.8355Z" stroke="white" stroke-width="1.5" stroke-miterlimit="10" stroke-linecap="round" stroke-linejoin="round"/>
</svg>
