<svg width="70" height="71" viewBox="0 0 70 71" fill="none" xmlns="http://www.w3.org/2000/svg">
<path d="M47.8625 11.9871C53.5209 11.9871 58.0709 16.5662 58.0709 22.1954C58.0709 27.7079 53.6959 32.1996 48.2417 32.4037C47.9898 32.3745 47.7353 32.3745 47.4834 32.4037M53.4917 58.6537C55.5917 58.2162 57.575 57.3704 59.2084 56.1162C63.7584 52.7037 63.7584 47.0746 59.2084 43.6621C57.6042 42.4371 55.65 41.6204 53.5792 41.1537M26.7167 32.0246C26.425 31.9954 26.075 31.9954 25.7542 32.0246C22.4064 31.9109 19.2344 30.4987 16.9098 28.0869C14.5851 25.6752 13.2905 22.4534 13.3 19.1037C13.3 11.9579 19.075 6.15372 26.25 6.15372C29.6807 6.09183 32.9955 7.39532 35.4651 9.77742C37.9347 12.1595 39.3569 15.4251 39.4188 18.8558C39.4807 22.2865 38.1772 25.6012 35.7951 28.0709C33.413 30.5405 30.1474 31.9627 26.7167 32.0246ZM12.1333 42.7871C5.07502 47.5121 5.07502 55.2121 12.1333 59.9079C20.1542 65.2746 33.3084 65.2746 41.3292 59.9079C48.3875 55.1829 48.3875 47.4829 41.3292 42.7871C33.3375 37.4496 20.1834 37.4496 12.1333 42.7871V42.7871Z" stroke="#1EC28B" stroke-width="1.5" stroke-linecap="round" stroke-linejoin="round"/>
</svg>
