<svg width="24" height="24" viewBox="0 0 24 24" fill="none" xmlns="http://www.w3.org/2000/svg">
<path d="M24 12C24 5.37258 18.6274 0 12 0C5.37258 0 0 5.37258 0 12C0 18.6274 5.37258 24 12 24C18.6274 24 24 18.6274 24 12Z" fill="white"/>
<path d="M6 11.76C6 9.044 6 7.688 6.84 6.84C7.692 6 9.048 6 11.76 6H12.24C14.956 6 16.312 6 17.16 6.84C18 7.692 18 9.048 18 11.76V12.24C18 14.956 18 16.312 17.16 17.16C16.308 18 14.952 18 12.24 18H11.76C9.044 18 7.688 18 6.84 17.16C6 16.308 6 14.952 6 12.24V11.76Z" fill="#0077FF"/>
<path d="M12.3839 14.644C9.64793 14.644 8.08793 12.772 8.02393 9.65201H9.39993C9.44393 11.94 10.4519 12.908 11.2519 13.108V9.65201H12.5439V11.624C13.3319 11.54 14.1639 10.64 14.4439 9.64801H15.7319C15.6269 10.1615 15.4171 10.6478 15.1157 11.0766C14.8142 11.5054 14.4276 11.8674 13.9799 12.14C14.4795 12.3887 14.9207 12.7404 15.2744 13.172C15.6281 13.6036 15.8863 14.1053 16.0319 14.644H14.6119C14.3079 13.696 13.5479 12.96 12.5439 12.86V14.644H12.3879H12.3839Z" fill="white"/>
</svg>
