<svg width="24" height="24" viewBox="0 0 24 24" fill="none" xmlns="http://www.w3.org/2000/svg">
<path d="M0 12C0 5.37258 5.37258 0 12 0C18.6274 0 24 5.37258 24 12C24 18.6274 18.6274 24 12 24C5.37258 24 0 18.6274 0 12Z" fill="#FF8800"/>
<path fill-rule="evenodd" clip-rule="evenodd" d="M15.6572 8.60269C15.6572 10.6046 14.0252 12.2366 12.0232 12.2366C9.99956 12.2366 8.36754 10.6046 8.36754 8.60269C8.36754 6.60076 9.99956 4.96875 12.0232 4.96875C14.0252 4.96875 15.6572 6.60076 15.6572 8.60269ZM13.5247 8.60269C13.5247 7.77581 12.8501 7.10124 12.0232 7.10124C11.1746 7.10124 10.5 7.77581 10.5218 8.60269C10.5218 9.42958 11.1964 10.1041 12.0232 10.1041C12.8501 10.1041 13.5247 9.42958 13.5247 8.60269Z" fill="white"/>
<path d="M15.5919 14.3474C14.9391 14.7608 14.221 15.0437 13.4812 15.2178L15.5484 17.2197C15.9618 17.6332 15.9618 18.3077 15.5484 18.7212C15.135 19.1346 14.4604 19.1346 14.047 18.7212L12.045 16.7192L10.0431 18.7212C9.8255 18.917 9.56438 19.0258 9.2815 19.0258C8.99862 19.0258 8.7375 18.9388 8.51989 18.7212C8.10644 18.3077 8.10644 17.6332 8.51989 17.2197L10.5436 15.196C9.80373 15.0219 9.08565 14.7391 8.43285 14.3256C7.93236 14.021 7.78004 13.3682 8.06292 12.8677C8.38933 12.3672 9.04213 12.2367 9.54262 12.5413C11.0223 13.477 12.9589 13.477 14.4386 12.5413C14.9391 12.2149 15.6137 12.3672 15.9183 12.8677C16.2447 13.3682 16.0924 14.0427 15.5919 14.3474Z" fill="white"/>
</svg>
